<svg width="2190" height="409" viewBox="0 0 2190 409" fill="none" xmlns="http://www.w3.org/2000/svg">
<path d="M84.8049 312.174C87.9978 308.984 92.3267 307.192 96.8404 307.192H513.301C520.887 307.192 524.685 316.366 519.318 321.728L437.027 403.954C433.834 407.145 429.505 408.937 424.991 408.937H8.53087C0.944258 408.937 -2.85358 399.763 2.5131 394.4L84.8049 312.174Z" fill="#00FFA3"/>
<path d="M84.8049 4.98247C87.9978 1.79211 92.3267 0 96.8404 0H513.301C520.887 0 524.685 9.17394 519.318 14.5363L437.027 96.7626C433.834 99.9529 429.505 101.745 424.991 101.745H8.53087C0.944258 101.745 -2.85358 92.5711 2.5131 87.2087L84.8049 4.98247Z" fill="#00FFA3"/>
<path d="M437.027 157.6C433.834 154.41 429.505 152.618 424.991 152.618H8.53087C0.944256 152.618 -2.85358 161.791 2.5131 167.154L84.8049 249.38C87.9978 252.57 92.3267 254.363 96.8404 254.363H513.301C520.887 254.363 524.685 245.189 519.318 239.826L437.027 157.6Z" fill="#00FFA3"/>
<path d="M742.024 223.968H824.478C836.06 223.968 845.449 233.428 845.449 245.097C845.449 256.766 836.06 266.225 824.478 266.225H725.025C723.472 266.225 721.971 266.784 720.791 267.801L690.763 293.684C686.166 297.646 688.947 305.232 694.997 305.232H819.497C819.548 305.232 819.59 305.19 819.59 305.138C819.59 305.084 819.636 305.041 819.69 305.045C821.257 305.169 822.84 305.232 824.438 305.232C857.464 305.232 884.237 278.308 884.237 245.097C884.237 213.558 860.094 187.691 829.38 185.164C829.328 185.16 829.287 185.116 829.287 185.063C829.287 185.007 829.242 184.962 829.186 184.962H740.358C728.776 184.962 719.387 175.502 719.387 163.833C719.387 152.164 728.776 142.705 740.358 142.705H839.673C841.309 142.705 842.884 142.085 844.086 140.969L871.97 115.085C876.332 111.036 873.488 103.698 867.557 103.698H742.024C742.018 103.698 742.013 103.703 742.013 103.709C742.013 103.715 742.008 103.72 742.002 103.719C741.469 103.705 740.934 103.698 740.397 103.698C707.371 103.698 680.599 130.622 680.599 163.833C680.599 197.045 707.371 223.968 740.397 223.968C740.934 223.968 741.469 223.961 742.002 223.947C742.008 223.947 742.013 223.952 742.013 223.958C742.013 223.963 742.018 223.968 742.024 223.968Z" fill="white"/>
<path d="M1222.26 103.698C1218.66 103.698 1215.74 106.636 1215.74 110.26V298.67C1215.74 302.294 1218.66 305.232 1222.26 305.232H1373.25C1375.05 305.232 1376.77 304.481 1378.01 303.158L1396.91 282.893C1400.81 278.702 1397.86 271.843 1392.15 271.843H1260.32C1256.71 271.843 1253.79 268.905 1253.79 265.282V110.26C1253.79 106.636 1250.87 103.698 1247.27 103.698H1222.26Z" fill="white"/>
<path fill-rule="evenodd" clip-rule="evenodd" d="M980.442 103.698C980.432 103.698 980.424 103.706 980.424 103.716C980.424 103.725 980.417 103.733 980.407 103.734C961.11 104.57 945.614 120.099 944.78 139.437C944.779 139.447 944.771 139.454 944.762 139.454C944.757 139.454 944.752 139.457 944.749 139.46C944.746 139.463 944.744 139.467 944.744 139.472V266.208C944.744 266.218 944.752 266.225 944.761 266.225C944.771 266.225 944.779 266.233 944.778 266.243C944.756 266.776 944.744 267.312 944.744 267.85C944.744 287.945 960.566 304.337 980.407 305.196C980.417 305.197 980.424 305.204 980.424 305.214L980.426 305.222L980.431 305.228C980.434 305.23 980.438 305.232 980.442 305.232H1117.44C1117.45 305.232 1117.46 305.224 1117.46 305.214L1117.46 305.204L1117.47 305.198L1117.48 305.196C1137.32 304.337 1153.14 287.945 1153.14 267.85C1153.14 267.312 1153.13 266.776 1153.1 266.243C1153.1 266.233 1153.11 266.225 1153.12 266.225C1153.13 266.225 1153.14 266.218 1153.14 266.208V139.472C1153.14 139.462 1153.13 139.454 1153.12 139.454C1153.11 139.454 1153.1 139.447 1153.1 139.437C1152.27 120.099 1136.77 104.57 1117.48 103.734C1117.47 103.733 1117.46 103.725 1117.46 103.716C1117.46 103.706 1117.45 103.698 1117.44 103.698L980.442 103.698ZM1005.98 139.454L1005.97 139.459L1005.97 139.465C1005.97 139.471 1005.96 139.476 1005.96 139.476C993.897 140.002 984.212 149.771 983.69 161.935C983.69 161.941 983.685 161.946 983.679 161.946C983.673 161.946 983.668 161.951 983.668 161.957V241.678C983.668 241.684 983.673 241.689 983.679 241.689C983.685 241.689 983.69 241.694 983.689 241.7C983.675 242.035 983.668 242.372 983.668 242.711C983.668 255.351 993.557 265.662 1005.96 266.203C1005.96 266.203 1005.97 266.208 1005.97 266.214L1005.97 266.22L1005.97 266.224L1005.98 266.225H1091.9L1091.91 266.224L1091.91 266.22L1091.92 266.214C1091.92 266.208 1091.92 266.203 1091.93 266.203C1104.33 265.662 1114.22 255.351 1114.22 242.711C1114.22 242.372 1114.21 242.035 1114.19 241.7L1114.19 241.697L1114.2 241.694L1114.2 241.689C1114.21 241.689 1114.22 241.684 1114.22 241.678V161.957C1114.22 161.951 1114.21 161.946 1114.2 161.946C1114.2 161.946 1114.19 161.941 1114.19 161.935C1113.67 149.771 1103.99 140.002 1091.93 139.476C1091.92 139.476 1091.92 139.471 1091.92 139.465L1091.91 139.46L1091.91 139.456L1091.9 139.454H1005.98Z" fill="white"/>
<path fill-rule="evenodd" clip-rule="evenodd" d="M1616.45 298.67C1616.45 302.294 1619.35 305.232 1622.93 305.232H1648.53C1652.11 305.232 1655.01 302.294 1655.01 298.67V142.722C1655.01 142.712 1655 142.705 1654.99 142.705L1654.98 142.703L1654.98 142.7C1654.98 142.697 1654.97 142.692 1654.97 142.687C1655 142.154 1655.01 141.618 1655.01 141.079C1655.01 120.985 1639.34 104.593 1619.68 103.734C1619.67 103.733 1619.67 103.725 1619.67 103.716C1619.67 103.706 1619.66 103.698 1619.65 103.698H1488.13C1488.12 103.698 1488.11 103.706 1488.11 103.715C1488.11 103.725 1488.1 103.733 1488.09 103.732C1487.56 103.71 1487.03 103.698 1486.5 103.698C1466.1 103.698 1449.56 120.434 1449.56 141.079C1449.56 141.618 1449.57 142.154 1449.59 142.687C1449.59 142.697 1449.58 142.705 1449.57 142.705C1449.56 142.705 1449.56 142.712 1449.56 142.722V298.67C1449.56 302.294 1452.45 305.232 1456.03 305.232H1481.64C1485.21 305.232 1488.11 302.294 1488.11 298.67V233.78C1488.11 230.156 1491.01 227.219 1494.58 227.219H1609.98C1613.56 227.219 1616.45 230.156 1616.45 233.78V298.67ZM1488.11 191.402V158.957C1488.11 146.391 1498.18 136.204 1510.6 136.204H1593.97C1606.39 136.204 1616.45 146.391 1616.45 158.957V191.402C1616.45 195.026 1613.56 197.964 1609.98 197.964H1494.58C1491.01 197.964 1488.11 195.026 1488.11 191.402Z" fill="white"/>
<path fill-rule="evenodd" clip-rule="evenodd" d="M2156.96 305.232C2153.36 305.232 2150.43 302.294 2150.43 298.67V233.78C2150.43 230.156 2147.5 227.219 2143.89 227.219H2027.22C2023.61 227.219 2020.68 230.156 2020.68 233.78V298.67C2020.68 302.294 2017.76 305.232 2014.15 305.232H1988.3C1984.69 305.232 1981.76 302.294 1981.76 298.67V142.722L1981.76 142.717L1981.76 142.712C1981.77 142.707 1981.77 142.705 1981.78 142.705C1981.79 142.705 1981.8 142.697 1981.79 142.687C1981.77 142.154 1981.76 141.618 1981.76 141.079C1981.76 120.434 1998.46 103.698 2019.06 103.698C2019.6 103.698 2020.13 103.71 2020.67 103.732C2020.68 103.733 2020.68 103.725 2020.68 103.715C2020.68 103.706 2020.69 103.698 2020.7 103.698L2153.66 103.698C2153.67 103.698 2153.67 103.706 2153.67 103.716C2153.67 103.725 2153.68 103.733 2153.69 103.734C2173.53 104.593 2189.35 120.985 2189.35 141.079C2189.35 141.618 2189.34 142.154 2189.32 142.687C2189.32 142.697 2189.33 142.705 2189.34 142.705C2189.34 142.705 2189.35 142.707 2189.35 142.71C2189.35 142.713 2189.35 142.717 2189.35 142.722V298.67C2189.35 302.294 2186.43 305.232 2182.82 305.232H2156.96ZM2020.68 158.957V191.402C2020.68 195.026 2023.61 197.964 2027.22 197.964H2143.89C2147.5 197.964 2150.43 195.026 2150.43 191.402V158.957C2150.43 146.391 2140.26 136.204 2127.72 136.204H2043.39C2030.85 136.204 2020.68 146.391 2020.68 158.957Z" fill="white"/>
<path d="M1751.39 103.698C1753.28 103.698 1755.08 104.54 1756.31 106.002L1871.15 242.901C1875.06 247.542 1882.55 244.743 1882.55 238.643V110.26C1882.55 106.636 1885.45 103.698 1889.03 103.698H1914.63C1918.21 103.698 1921.11 106.636 1921.11 110.26V298.67C1921.11 302.294 1918.21 305.232 1914.63 305.232H1882.79C1882.66 305.232 1882.55 305.122 1882.55 304.987C1882.55 304.927 1882.53 304.87 1882.49 304.825L1765.72 168.882C1761.79 164.316 1754.38 167.136 1754.38 173.198V298.67C1754.38 302.294 1751.48 305.232 1747.9 305.232H1722.13C1718.56 305.232 1715.66 302.294 1715.66 298.67V110.26C1715.66 106.636 1718.56 103.698 1722.13 103.698H1751.39Z" fill="white"/>
</svg>
