
<svg width="64" height="64" viewBox="0 0 64 64" fill="none" xmlns="http://www.w3.org/2000/svg">
    <path d="M63.9968 26.0357L63.9808 25.9675C63.9739 25.9114 63.9653 25.8562 63.9527 25.8024L63.9432 25.7589L63.8974 25.6127L63.8849 25.5876C63.8659 25.5382 63.8417 25.488 63.8167 25.4347L63.7687 25.3309L63.7208 25.2568C63.6318 25.1176 63.5237 24.9893 63.399 24.875L62.0864 23.6821C61.9017 23.4053 61.6414 23.1765 61.3307 23.0178C61.02 22.8592 60.6694 22.7761 60.3128 22.7765C60.2472 22.7765 60.1808 22.7794 60.1137 22.7851L56.1637 23.1282L60.0735 3.7088L60.0805 3.65549C60.0908 3.57509 60.0953 3.49416 60.0938 3.41322V3.2772L60.0783 3.20899C60.0719 3.15159 60.0621 3.09453 60.049 3.03807L59.9967 2.86441L59.9833 2.83659C59.9595 2.77583 59.9336 2.71898 59.9068 2.6641L59.8585 2.56571L59.8153 2.50063C59.7259 2.35988 59.6169 2.23023 59.4909 2.1149L57.821 0.598601L57.8089 0.609584C57.6142 0.417363 57.3775 0.263931 57.114 0.159003C56.8505 0.0540747 56.5659 -7.2891e-05 56.2782 7.36426e-08L56.1698 0.00235682L19.0669 2.56571C15.3124 2.82825 11.7565 4.20131 8.94444 6.4743C6.13241 8.7473 4.21955 11.7947 3.49926 15.1492L2.822 18.3272C2.66613 19.0699 2.78138 19.8384 3.15027 20.5162L5.66367 25.1113C5.77093 25.309 5.80253 25.5334 5.7535 25.7491L0.0403604 50.8354C-0.0256347 51.1354 -0.0105209 51.4455 0.0844129 51.739C0.179347 52.0326 0.351268 52.3009 0.585454 52.521L0.557813 52.5473L0.71288 52.6876L0.813085 52.7335L11.931 62.0966C11.9616 62.1229 11.9923 62.1472 12.0217 62.1691V62.1719L12.7128 62.7536L13.6172 63.5028C13.9775 63.8017 14.4417 63.9769 14.9293 63.9979C15.4169 64.0188 15.8972 63.8843 16.287 63.6176L31.5808 53.1055C31.6598 53.0519 31.7534 53.0188 31.8516 53.0098L57.5338 50.8989C57.8096 50.8704 58.0763 50.7924 58.3186 50.6696C58.3842 50.6366 58.4475 50.6 58.5082 50.5602C58.6406 50.4762 58.762 50.3789 58.8702 50.2701C58.9391 50.2078 59.0013 50.1397 59.0559 50.0666L59.1134 49.9851L59.1937 49.8518L59.2231 49.7946C59.268 49.706 59.305 49.6142 59.3337 49.5202L59.3643 49.4108L63.97 26.5147L63.986 26.4155C63.9964 26.3352 64.001 26.2542 63.9998 26.1733L63.9968 26.0357Z" fill="#1F2932"/>
    <path d="M1.51816 51.6767L1.50391 51.6638L1.51859 51.6771L1.51816 51.6767ZM52.6648 24.0193C52.6678 24.0408 52.6687 24.0628 52.6739 24.0832C52.6765 24.093 52.6821 24.1012 52.6855 24.1106C52.6971 24.1491 52.7128 24.1865 52.7322 24.2223C52.7413 24.2384 52.7473 24.2552 52.7577 24.2709C52.7888 24.3209 52.827 24.367 52.8713 24.4081L54.5394 25.9244C54.4951 25.8833 54.457 25.8372 54.4258 25.7872C54.4154 25.7715 54.4094 25.7543 54.4003 25.7378C54.3809 25.7021 54.3653 25.6649 54.3536 25.6265C54.3446 25.5966 54.3378 25.5663 54.3333 25.5356C54.3333 25.5222 54.329 25.5097 54.3282 25.4964C54.3244 25.4454 54.327 25.3943 54.336 25.3439L58.7226 3.5552C58.7257 3.54148 58.7278 3.52816 58.7296 3.51601C58.7344 3.48262 58.7362 3.44891 58.7347 3.41525V3.40428C58.7347 3.39252 58.7317 3.38232 58.7304 3.37135C58.7274 3.34704 58.7261 3.32195 58.72 3.29843C58.72 3.2902 58.7123 3.28354 58.7105 3.27531C58.6997 3.23865 58.6853 3.20296 58.6673 3.16868C58.6599 3.1521 58.6516 3.13588 58.6423 3.12007C58.6121 3.07196 58.5752 3.02756 58.5326 2.98796L56.8645 1.47168C56.9074 1.51167 56.9446 1.55646 56.975 1.60496C56.9854 1.62064 56.991 1.6375 57.0001 1.65357C57.0181 1.68783 57.0325 1.72353 57.0433 1.7602C57.0531 1.7916 57.0597 1.82374 57.0632 1.85624C57.0632 1.86721 57.0675 1.87818 57.0683 1.88916C57.0714 1.94033 57.0677 1.99165 57.0575 2.04205L52.6708 23.8307C52.6708 23.8417 52.667 23.8527 52.6657 23.8636C52.6608 23.8974 52.659 23.9315 52.6605 23.9656C52.661 23.9713 52.6619 23.9771 52.6631 23.9828C52.6605 23.9938 52.6631 24.0063 52.6648 24.0193ZM62.6389 26.1624C62.6389 26.1518 62.6359 26.1416 62.6346 26.131C62.6328 26.1059 62.6293 26.0809 62.6243 26.0561C62.6243 26.0479 62.6174 26.0412 62.6148 26.0334C62.6041 25.9971 62.5896 25.9618 62.5716 25.928C62.5634 25.9119 62.5569 25.895 62.5474 25.8794C62.517 25.8315 62.4803 25.7871 62.4381 25.7472L60.77 24.2309C60.813 24.2708 60.8501 24.3154 60.8806 24.3638C60.8901 24.3795 60.8965 24.3964 60.9047 24.4125C60.9223 24.4465 60.9368 24.4817 60.9479 24.5179C60.9572 24.5497 60.9639 24.582 60.9678 24.6147C60.9678 24.6257 60.9717 24.6363 60.9721 24.6473C60.9752 24.6983 60.9716 24.7495 60.9613 24.7997L56.3699 47.6171C56.3558 47.6829 56.3306 47.7463 56.2952 47.8052L56.2779 47.833C56.2428 47.8881 56.1992 47.9383 56.1483 47.982C56.1431 47.9867 56.1362 47.9902 56.1306 47.9949C56.0833 48.0314 56.0312 48.0625 55.9755 48.0875C55.9591 48.0949 55.9432 48.102 55.9263 48.1082C55.8612 48.1338 55.7924 48.1508 55.722 48.1588L30.0614 50.2678C29.7118 50.298 29.378 50.415 29.0969 50.6061L13.6874 61.2037C13.5831 61.2766 13.4583 61.3215 13.3273 61.3333C13.1963 61.3451 13.0642 61.3233 12.9462 61.2703L13.6282 61.845L14.5353 62.5949C14.6709 62.7075 14.8482 62.7697 15.032 62.7694C15.1901 62.7697 15.344 62.7232 15.4704 62.6369L30.7668 52.1228C31.0478 51.9315 31.3815 51.8144 31.7313 51.7845L57.3918 49.6755C57.4883 49.6641 57.5814 49.6356 57.6657 49.5916C57.6892 49.5798 57.7118 49.5667 57.7335 49.5524C57.7932 49.5148 57.8463 49.4694 57.8912 49.4175C57.902 49.4054 57.9188 49.3991 57.9283 49.3858C57.9378 49.3725 57.9421 49.3619 57.9499 49.3505C57.9577 49.3391 57.9616 49.3325 57.9672 49.3235C57.9728 49.3144 57.9845 49.298 57.9914 49.2843C58.0062 49.2542 58.0184 49.2232 58.0277 49.1914C58.0333 49.1729 58.038 49.1541 58.0419 49.1353L62.6329 26.316C62.6355 26.3027 62.6381 26.2894 62.6394 26.2768C62.6443 26.2431 62.646 26.209 62.6446 26.1749L62.6389 26.1624Z" fill="#2CC597"/>
    <path d="M52.6695 23.8274L56.9949 2.00776C57.0145 1.90849 57.0088 1.80646 56.9783 1.70949C56.9478 1.61252 56.8932 1.52319 56.8187 1.44834C56.7442 1.37348 56.6518 1.31509 56.5487 1.27766C56.4455 1.24022 56.3342 1.22473 56.2234 1.23236L19.1715 3.79296C15.7116 4.02962 12.4334 5.29257 9.84235 7.38711C7.25133 9.48164 5.4913 12.2915 4.8336 15.3835L4.15677 18.5615C4.0553 19.0392 4.12934 19.5338 4.36754 19.9696L6.88095 24.5655C7.12362 25.0094 7.19556 25.5142 7.08526 25.9995L1.37081 51.0881C1.34526 51.1991 1.35171 51.3142 1.38954 51.4223C1.42738 51.5304 1.49531 51.6278 1.58678 51.7051L12.8602 61.2004C12.9855 61.3059 13.1479 61.368 13.3187 61.3756C13.4896 61.3832 13.6579 61.3359 13.794 61.2419L29.1949 50.6334C29.4748 50.4406 29.809 50.3233 30.159 50.2951L55.8468 48.1782C56.0049 48.1647 56.1539 48.1047 56.2709 48.0071C56.3879 47.9096 56.4665 47.7799 56.4947 47.638L61.0235 24.7839C61.0433 24.6836 61.0373 24.5805 61.006 24.4827C60.9746 24.3849 60.9187 24.295 60.8426 24.2201C60.7665 24.1452 60.6724 24.0873 60.5675 24.0509C60.4627 24.0145 60.3499 24.0007 60.2382 24.0105L53.4504 24.5985C53.3393 24.6074 53.2274 24.5931 53.1234 24.5565C53.0194 24.52 52.926 24.4622 52.8505 24.3876C52.775 24.3131 52.7194 24.2238 52.688 24.1267C52.6567 24.0295 52.6503 23.9271 52.6695 23.8274Z" fill="#1F2932"/>
    <path d="M27.9524 19.3047C27.8196 18.8071 27.5874 18.3358 27.2673 17.9142C26.9466 17.5017 26.5307 17.1576 26.0484 16.906C25.489 16.6237 24.8668 16.4592 24.2279 16.4246C25.2535 15.8198 26.1064 15.0026 26.7162 14.0404C27.2571 13.2067 27.5507 12.2601 27.5684 11.2928C27.5722 10.6842 27.4295 10.0821 27.1503 9.52874C26.8585 8.96428 26.4096 8.47857 25.848 8.11947C25.1786 7.69878 24.4236 7.40334 23.627 7.25039C22.882 7.13071 22.1249 7.08444 21.3689 7.11239L21.0333 8.57773C21.2973 8.59023 21.5596 8.62355 21.8172 8.6773C22.3142 8.77996 22.7783 8.98565 23.1731 9.27825C23.5128 9.54171 23.777 9.87596 23.9432 10.2524C24.1118 10.6352 24.1975 11.044 24.1955 11.4563C24.1872 12.0607 24.0569 12.6585 23.811 13.2203C23.5596 13.8218 23.2101 14.3856 22.7744 14.893C22.3454 15.3937 21.8325 15.8302 21.2544 16.1866C20.6993 16.5353 20.0561 16.751 19.3846 16.8138L19.1842 16.8323L18.8037 18.414C19.102 18.347 19.4039 18.2936 19.7081 18.2541C19.9984 18.2168 20.21 18.1914 20.3439 18.1792C20.8587 18.1131 21.3835 18.1686 21.8678 18.3403C22.2694 18.4951 22.6128 18.7525 22.856 19.0812C23.113 19.4395 23.2891 19.8404 23.3744 20.2608C23.4783 20.7454 23.5289 21.2383 23.5255 21.732C23.5227 22.3515 23.4668 22.9699 23.3584 23.5815C23.2549 24.2045 23.0642 24.813 22.7908 25.3922C22.545 25.9226 22.1936 26.4074 21.7542 26.8222C21.3485 27.2081 20.8026 27.4475 20.2174 27.4961C19.8481 27.5333 19.4745 27.4849 19.1315 27.3554C18.7019 27.173 18.3118 26.922 17.98 26.6145C17.7189 27.1856 17.5719 27.7943 17.5459 28.4122C17.5232 28.8023 17.6337 29.1892 17.8625 29.52C18.0632 29.7853 18.3406 29.9952 18.6642 30.1269C19.0021 30.2623 19.364 30.3419 19.7327 30.3621C20.1054 30.3863 20.4796 30.3818 20.8514 30.3488C22.1385 30.2607 23.3638 29.8127 24.3587 29.0665C25.2789 28.3597 26.0437 27.5016 26.613 26.5372C27.1698 25.6029 27.5747 24.6003 27.815 23.5607C28.0282 22.6981 28.1456 21.8182 28.1653 20.9343C28.1683 20.3852 28.0968 19.8379 27.9524 19.3047Z" fill="white"/>
    <path d="M33.9455 23.7015C33.9455 24.7317 34.1457 25.395 34.5463 25.6913C35.0752 26.0145 35.7238 26.1339 36.3496 26.0234C36.9703 25.9718 37.5785 25.8332 38.1525 25.6125C38.6855 25.4023 39.1897 25.1365 39.6552 24.8207C40.1365 24.4937 40.5839 24.1273 40.9916 23.7262C41.4143 23.313 41.8376 22.8744 42.2614 22.4102L43.3974 22.3044C42.9173 23.0726 42.3815 23.8111 41.7936 24.5149C41.1932 25.2377 40.5104 25.901 39.7567 26.4938C38.9967 27.0921 38.1547 27.5986 37.2515 28.0007C36.297 28.4195 35.2676 28.6797 34.212 28.769C32.6222 28.9174 31.3507 28.6624 30.3976 28.0038C29.4445 27.3452 28.9682 26.1569 28.9688 24.4389C28.9776 23.7622 29.0446 23.0872 29.1692 22.42C29.313 21.6197 29.5195 20.8296 29.7868 20.0558C30.0757 19.2182 30.4503 18.407 30.906 17.6328C31.3699 16.8361 31.9421 16.0953 32.6091 15.4278C33.2806 14.7562 34.0708 14.1909 34.9471 13.7551C35.8875 13.2944 36.9214 13.0123 37.9858 12.926C38.5925 12.8513 39.2091 12.8759 39.8063 12.9985C40.23 13.0894 40.6209 13.2772 40.9419 13.5442C41.2139 13.7831 41.41 14.0841 41.5095 14.4156C41.6116 14.7671 41.662 15.1293 41.6593 15.4928C41.6587 16.344 41.4425 17.1836 41.0274 17.9468C40.6039 18.7365 40.0297 19.4519 39.3312 20.0597C38.6092 20.6909 37.7852 21.2183 36.8878 21.6239C35.9815 22.039 35.0119 22.3286 34.0111 22.4831C33.9895 22.7079 33.9731 22.9215 33.9619 23.1241C33.9498 23.3271 33.9455 23.5196 33.9455 23.7015ZM39.0893 15.6975C39.1061 15.3926 39.0426 15.0885 38.904 14.8103C38.8427 14.7072 38.7461 14.625 38.6287 14.576C38.5114 14.527 38.3798 14.5139 38.2535 14.5387C37.7658 14.6112 37.3254 14.8462 37.0182 15.1976C36.5724 15.6558 36.191 16.1623 35.8827 16.7057C35.5049 17.3589 35.1871 18.0393 34.9324 18.7398C34.6554 19.4822 34.4266 20.2386 34.2474 21.0053C34.9068 20.9005 35.5368 20.678 36.1008 20.3506C36.6876 20.0174 37.2124 19.6018 37.6558 19.1193C38.1017 18.6345 38.4572 18.0869 38.7084 17.498C38.9577 16.9245 39.0869 16.3139 39.0893 15.6975Z" fill="white"/>
    <path d="M47.0407 22.5402C46.9386 22.8918 46.8824 23.2531 46.8735 23.6167C46.8568 23.8903 46.9456 24.1607 47.1244 24.3815C47.2454 24.4844 47.3929 24.5582 47.5534 24.5961C47.7138 24.634 47.8822 24.6349 48.0432 24.5987C48.1542 24.5881 48.2941 24.5704 48.4609 24.5449C48.6156 24.5225 48.7667 24.483 48.9109 24.4273C48.7152 24.9988 48.4466 25.5475 48.1105 26.0624C47.8669 26.4329 47.563 26.768 47.2091 27.0562C46.9368 27.2763 46.6189 27.4452 46.274 27.5528C45.9804 27.639 45.678 27.6976 45.3712 27.7277C44.1906 27.8377 43.3392 27.5888 42.8168 26.9809C42.2662 26.2958 41.9893 25.461 42.0316 24.6139C42.0343 24.0673 42.1015 23.5224 42.232 22.9887L44.37 13.6981L43.2669 13.8011L43.5342 12.5636L44.6361 12.4609L45.6386 8.18404L50.582 7.11621C50.4709 7.53174 50.3593 7.99679 50.2473 8.51137C50.1356 8.9465 50.0132 9.46317 49.8802 10.0614C49.7471 10.6596 49.6031 11.3097 49.4482 12.0116L51.4515 11.8246L51.1842 13.0622L49.18 13.2492L47.0407 22.5402Z" fill="white"/>
    <path d="M18.2804 25.3071L13.5499 25.4392L17.1742 9.69647C15.7288 10.3275 14.5171 11.3267 13.6869 12.5722C12.8566 13.8176 12.4437 15.2555 12.4985 16.7103C12.4937 17.012 12.5159 17.3135 12.5651 17.6119C12.5988 17.8066 12.6435 17.9996 12.699 18.1901C12.7319 18.312 12.7823 18.4294 12.8488 18.5394C12.8955 18.6081 12.9347 18.6807 12.9659 18.7562C12.0772 18.8941 11.1633 18.7608 10.367 18.3771C9.74009 18.022 9.42636 17.3294 9.42578 16.2995C9.44162 15.1793 9.80153 14.0853 10.465 13.1407C11.1895 12.0736 12.1037 11.123 13.1706 10.3272C14.3086 9.4709 15.5714 8.76132 16.9232 8.21859C18.3145 7.65488 19.7248 6.53844 21.1048 6.40947C21.3501 6.38634 21.5747 6.5502 21.7958 6.54001C22.017 6.52982 22.5811 6.54001 22.5811 6.54001L18.2804 25.3071Z" fill="#1F2932"/>
    <path d="M16.0628 30.2816L11.2537 30.7301L16.0961 9.69682C14.6507 10.3279 13.439 11.3271 12.6087 12.5725C11.7785 13.818 11.3656 15.2558 11.4204 16.7106C11.4155 17.0123 11.4378 17.3139 11.4869 17.6123C11.5301 17.8502 11.5755 18.0435 11.6208 18.1905C11.6537 18.3125 11.7044 18.43 11.7716 18.5398C11.8177 18.6086 11.8566 18.6811 11.8878 18.7566C10.9991 18.8944 10.0852 18.7611 9.28883 18.3775C8.66195 18.0223 8.34823 17.3298 8.34766 16.2998C8.3635 15.1795 8.72372 14.0855 9.38774 13.141C10.1122 12.074 11.0265 11.1233 12.0934 10.3276C13.2311 9.47113 14.4937 8.76154 15.8455 8.21895C17.162 7.67379 18.5658 7.32284 20.0042 7.17933C20.2486 7.1566 20.4832 7.14014 20.7052 7.12956C20.9272 7.11897 21.151 7.11348 21.3738 7.1123L16.0628 30.2816Z" fill="#2CC597"/>
    <path d="M23.8453 32.1729L20.5388 46.5463C21.5032 46.1671 22.364 45.6004 23.0605 44.8861C23.8431 43.9765 24.4168 42.9337 24.7476 41.8194L26.1501 41.6881C25.8731 42.6039 25.4748 43.4858 24.964 44.3146C24.5583 44.9642 24.0584 45.5614 23.4777 46.0904C22.9894 46.5326 22.4393 46.9148 21.8415 47.2272C21.3286 47.4933 20.7926 47.7208 20.2386 47.9073L19.7376 50.1363C19.5534 51.094 19.198 52.018 18.6854 52.8717C18.2919 53.5105 17.7841 54.0854 17.1827 54.573C16.6787 54.9753 16.0951 55.287 15.4628 55.4915C14.9007 55.6707 14.3178 55.791 13.7256 55.8502C12.8113 55.9668 11.8806 55.7972 11.0869 55.3692C10.3526 54.9524 9.98548 54.2486 9.98548 53.2578C9.97789 52.656 10.1509 52.0637 10.4861 51.5444C10.8279 51.0194 11.2619 50.5486 11.7711 50.1508C12.3088 49.7297 12.8971 49.3649 13.5247 49.0634C14.1703 48.7498 14.8051 48.4731 15.4291 48.2335L15.8295 46.5596C15.2681 47.2222 14.5487 47.7609 13.7251 48.1351C13.1229 48.3893 12.4804 48.5563 11.8212 48.6298C11.3733 48.6885 10.9169 48.6631 10.4803 48.5552C10.0436 48.4473 9.63603 48.2592 9.28272 48.0026C8.59164 47.4917 8.24609 46.5993 8.24609 45.3255C8.26188 44.6542 8.3513 43.9859 8.51303 43.3306L10.7837 33.3893L15.5937 32.9396L13.1887 43.4706C13.1218 43.7215 13.0881 43.9788 13.0885 44.2369C13.0804 44.5497 13.1544 44.8597 13.3044 45.1413C13.3758 45.2683 13.4917 45.3702 13.6338 45.4311C13.7759 45.4919 13.9363 45.5081 14.0897 45.4773C14.4062 45.4444 14.7113 45.3507 14.9848 45.2025C15.2582 45.0543 15.4938 44.8549 15.6757 44.6176C16.1362 44.0552 16.4814 43.4222 16.6947 42.7489L19.0327 32.619L23.8453 32.1729ZM11.8221 52.6636C11.8287 52.9014 11.9298 53.129 12.1067 53.3045C12.2128 53.4093 12.3468 53.4876 12.4957 53.5319C12.6447 53.5763 12.8037 53.5851 12.9576 53.5577C13.1858 53.5069 13.3993 53.4121 13.5836 53.2799C13.768 53.1477 13.9189 52.9811 14.0262 52.7914C14.4553 52.1416 14.7495 51.426 14.8944 50.68L15.0944 49.7823C14.6716 49.9626 14.26 50.1577 13.8595 50.3676C13.4847 50.5596 13.1322 50.7853 12.8073 51.0414C12.5259 51.2608 12.2836 51.5184 12.089 51.8051C11.9145 52.0628 11.8221 52.3595 11.8221 52.662V52.6636Z" fill="#2CC597"/>
    <path d="M33.4306 31.1266C36.237 30.8652 37.6624 32.3185 37.7067 35.4865C37.8293 35.4984 37.953 35.4968 38.0752 35.4818C38.5027 35.4367 38.9231 35.3467 39.3278 35.2136C39.7977 35.0648 40.2551 34.8853 40.6965 34.6766C41.1563 34.461 41.6025 34.2223 42.0329 33.9616C42.4672 33.6987 42.8624 33.4393 43.2186 33.1834L43.5209 33.9745C42.8048 34.7127 41.9512 35.3311 40.9993 35.8013C39.9423 36.34 38.8147 36.7558 37.6432 37.0388C37.5319 38.3702 37.2287 39.6826 36.7414 40.9425C36.3211 42.0356 35.7243 43.0661 34.9705 44.0001C34.3098 44.8219 33.4826 45.5217 32.5331 46.0621C31.6531 46.5611 30.6594 46.8715 29.6275 46.9696C28.91 47.0436 28.1846 47.0248 27.473 46.9136C26.849 46.8252 26.262 46.5881 25.7721 46.2265C25.2822 45.8648 24.9068 45.3916 24.6844 44.8551C24.3956 44.1603 24.2596 43.4209 24.284 42.6787C24.2926 42.002 24.3596 41.327 24.4845 40.6598C24.6307 39.8521 24.8486 39.0563 25.1358 38.2803C25.4433 37.4383 25.8288 36.6215 26.2882 35.8385C26.7543 35.039 27.3321 34.2975 28.0073 33.6323C28.6872 32.9621 29.4827 32.3968 30.3626 31.9584C31.3126 31.4953 32.3564 31.2123 33.4306 31.1266ZM30.9595 43.9962C31.4257 43.9295 31.8544 43.7246 32.1789 43.4137C32.6394 43.0023 33.0231 42.5257 33.3149 42.0025C33.693 41.3402 34.0006 40.6468 34.2336 39.9315C34.5094 39.1004 34.7103 38.2503 34.8344 37.3897C34.6871 37.3826 34.5441 37.3421 34.4185 37.2717C34.293 37.2014 34.189 37.1035 34.1161 36.9871C33.9876 36.7417 33.9245 36.4723 33.9321 36.2007C33.9182 35.8267 34.0166 35.4562 34.2167 35.129C34.3881 34.8526 34.6504 34.6317 34.967 34.4974C34.9747 34.0486 34.8541 33.6056 34.6171 33.2117C34.5084 33.0909 34.3652 32.9996 34.2031 32.9479C34.0411 32.8962 33.8665 32.886 33.6984 32.9184C33.3492 32.9764 33.0173 33.1002 32.724 33.2817C32.4308 33.4633 32.1827 33.6986 31.9957 33.9725C31.42 34.6853 30.9483 35.4627 30.5924 36.2854C30.1857 37.1992 29.8618 38.1416 29.624 39.1032C29.3969 39.9537 29.2737 40.8244 29.2569 41.6994C29.2493 42.1073 29.277 42.5151 29.3398 42.919C29.374 43.1741 29.4711 43.4189 29.624 43.6352C29.7511 43.801 29.9415 43.918 30.1583 43.9637C30.4211 44.0166 30.6921 44.0276 30.9591 43.9962H30.9595Z" fill="#2CC597"/>
    <path d="M46.4882 30.059L44.0841 40.5891C44.0165 40.8402 43.9826 41.0978 43.983 41.3563C43.9752 41.6689 44.0492 41.9787 44.199 42.2603C44.2705 42.3872 44.3865 42.4891 44.5287 42.5498C44.6709 42.6106 44.8312 42.6267 44.9846 42.5958C45.3137 42.5606 45.6303 42.4611 45.9128 42.304C46.1953 42.1469 46.4369 41.936 46.6208 41.686C47.0973 41.0795 47.4485 40.3996 47.6574 39.6793L49.929 29.7379L54.7381 29.2891L52.3331 39.8192C52.2483 40.1412 52.2037 40.4709 52.2 40.802C52.1765 40.9573 52.1946 41.1155 52.2527 41.2632C52.3108 41.4108 52.4073 41.5436 52.5339 41.6503C52.8502 41.8071 53.2168 41.8587 53.5706 41.7961C53.7985 41.783 54.0233 41.7415 54.2387 41.6726C54.3715 41.6204 54.5162 41.5663 54.6728 41.5103C54.666 41.981 54.5528 42.4453 54.3401 42.8745C54.1275 43.3038 53.82 43.6889 53.4367 44.0059C52.7426 44.5533 51.8794 44.8931 50.9647 44.9788C50.5676 45.0382 50.1611 45.02 49.7723 44.9253C49.3836 44.8307 49.0216 44.6618 48.7105 44.43C48.0999 43.8963 47.736 43.1717 47.6924 42.4033C47.3353 42.9874 46.9037 43.5313 46.4065 44.0239C46.0206 44.4018 45.5826 44.7331 45.1034 45.0094C44.7128 45.2333 44.2917 45.4101 43.8508 45.5355C43.4804 45.6375 43.1004 45.7082 42.7157 45.7468C42.2678 45.8051 41.8115 45.7795 41.3749 45.6716C40.9384 45.5638 40.5308 45.3759 40.1772 45.1196C39.4862 44.6079 39.1406 43.7154 39.1406 42.4422C39.1568 41.7707 39.2462 41.1023 39.4076 40.4468L41.6791 30.5055L46.4882 30.059Z" fill="#2CC597"/>
</svg>
